<mxfile host="app.diagrams.net" modified="2023-04-20T15:05:30.300Z" agent="Mozilla/5.0 (X11; Linux x86_64) AppleWebKit/537.36 (KHTML, like Gecko) Chrome/112.0.0.0 Safari/537.36" etag="mZnp-w1grEWJTOHcEOCm" version="21.2.1" type="github">
  <diagram name="Page-1" id="Cl_RyHP-qeL_iuJ1_8LN">
    <mxGraphModel dx="1434" dy="775" grid="1" gridSize="10" guides="1" tooltips="1" connect="1" arrows="1" fold="1" page="1" pageScale="1" pageWidth="850" pageHeight="1100" math="0" shadow="0">
      <root>
        <mxCell id="0" />
        <mxCell id="1" parent="0" />
        <mxCell id="ln6owdjJWBcUK8_FFF5o-1" value="Public Websocket Server" style="image;html=1;image=img/lib/clip_art/computers/Server_128x128.png" parent="1" vertex="1">
          <mxGeometry x="385" y="140" width="80" height="80" as="geometry" />
        </mxCell>
        <mxCell id="M_4hoaOgUC3wFRqDc9iV-9" value="" style="edgeStyle=orthogonalEdgeStyle;rounded=0;orthogonalLoop=1;jettySize=auto;html=1;entryX=0;entryY=0.5;entryDx=0;entryDy=0;" edge="1" parent="1" source="M_4hoaOgUC3wFRqDc9iV-2" target="ln6owdjJWBcUK8_FFF5o-1">
          <mxGeometry relative="1" as="geometry">
            <mxPoint x="190" y="200" as="targetPoint" />
            <Array as="points">
              <mxPoint x="190" y="180" />
            </Array>
          </mxGeometry>
        </mxCell>
        <mxCell id="M_4hoaOgUC3wFRqDc9iV-2" value="Proxy HTTP Server" style="rounded=0;whiteSpace=wrap;html=1;" vertex="1" parent="1">
          <mxGeometry x="130" y="280" width="120" height="60" as="geometry" />
        </mxCell>
        <mxCell id="M_4hoaOgUC3wFRqDc9iV-3" value="Proxy HTTP Consumer" style="rounded=0;whiteSpace=wrap;html=1;" vertex="1" parent="1">
          <mxGeometry x="620" y="280" width="140" height="60" as="geometry" />
        </mxCell>
        <mxCell id="M_4hoaOgUC3wFRqDc9iV-7" value="" style="edgeStyle=orthogonalEdgeStyle;rounded=0;orthogonalLoop=1;jettySize=auto;html=1;" edge="1" parent="1" source="M_4hoaOgUC3wFRqDc9iV-5" target="M_4hoaOgUC3wFRqDc9iV-2">
          <mxGeometry relative="1" as="geometry" />
        </mxCell>
        <mxCell id="M_4hoaOgUC3wFRqDc9iV-5" value="HTTP Consumer" style="rounded=0;whiteSpace=wrap;html=1;" vertex="1" parent="1">
          <mxGeometry x="130" y="450" width="120" height="60" as="geometry" />
        </mxCell>
        <mxCell id="M_4hoaOgUC3wFRqDc9iV-6" value="HTTP Server" style="rounded=0;whiteSpace=wrap;html=1;" vertex="1" parent="1">
          <mxGeometry x="630" y="400" width="120" height="60" as="geometry" />
        </mxCell>
        <mxCell id="M_4hoaOgUC3wFRqDc9iV-10" value="HTTP Request" style="text;html=1;align=center;verticalAlign=middle;resizable=0;points=[];autosize=1;strokeColor=none;fillColor=none;rotation=-90;" vertex="1" parent="1">
          <mxGeometry x="110" y="380" width="100" height="30" as="geometry" />
        </mxCell>
        <mxCell id="M_4hoaOgUC3wFRqDc9iV-11" value="HTTP Request" style="text;html=1;align=center;verticalAlign=middle;resizable=0;points=[];autosize=1;strokeColor=none;fillColor=none;rotation=-90;" vertex="1" parent="1">
          <mxGeometry x="110" y="200" width="100" height="30" as="geometry" />
        </mxCell>
      </root>
    </mxGraphModel>
  </diagram>
</mxfile>
